<svg id="Layer_1" data-name="Layer 1" xmlns="http://www.w3.org/2000/svg" viewBox="0 0 1367 768"><defs><style>.cls-1{fill:#3c3c3c;}.cls-2{opacity:0.3;}.cls-3{fill:none;}.cls-3,.cls-4,.cls-5{stroke:#808184;stroke-miterlimit:10;stroke-width:1.95px;}.cls-4{fill:#f1f1f2;}.cls-5{fill:#faaf40;}</style></defs><rect class="cls-1" width="1367" height="768"/><g class="cls-2"><line class="cls-3" x1="579.66" y1="712.42" x2="614.88" y2="727.25"/><polyline class="cls-3" points="565.08 803.81 579.66 776.29 598.53 752.56 614.88 727.25 622.63 697.76"/><circle class="cls-4" cx="579.66" cy="776.29" r="8.17"/><circle class="cls-4" cx="598.53" cy="752.56" r="8.17"/><circle class="cls-4" cx="614.88" cy="727.25" r="8.17"/><circle class="cls-4" cx="623.06" cy="697.76" r="8.17"/><polygon class="cls-5" points="585.09 703.02 574.24 703.02 568.81 712.42 574.24 721.82 585.09 721.82 590.51 712.42 585.09 703.02"/><line class="cls-3" x1="579.66" y1="403.35" x2="614.88" y2="418.18"/><line class="cls-3" x1="610.58" y1="481.48" x2="579.66" y2="467.22"/><polyline class="cls-3" points="565.08 494.75 579.66 467.22 598.53 443.49 614.88 418.18 622.63 388.69"/><circle class="cls-4" cx="565.08" cy="494.74" r="8.17"/><circle class="cls-4" cx="579.66" cy="467.22" r="8.17"/><circle class="cls-4" cx="598.53" cy="443.49" r="8.17"/><circle class="cls-4" cx="614.88" cy="418.18" r="8.17"/><circle class="cls-4" cx="623.06" cy="388.69" r="8.17"/><polygon class="cls-5" points="585.09 393.95 574.24 393.95 568.81 403.35 574.24 412.75 585.09 412.75 590.51 403.35 585.09 393.95"/><polygon class="cls-5" points="610.58 470.02 614.3 477.56 622.63 478.77 616.6 484.64 618.02 492.93 610.58 489.02 603.14 492.93 604.56 484.64 598.53 478.77 606.86 477.56 610.58 470.02"/><line class="cls-3" x1="579.66" y1="94.28" x2="614.88" y2="109.11"/><line class="cls-3" x1="610.58" y1="172.41" x2="579.66" y2="158.15"/><polyline class="cls-3" points="565.08 185.68 579.66 158.15 598.53 134.43 614.88 109.11 622.63 79.62"/><circle class="cls-4" cx="565.08" cy="185.68" r="8.17"/><circle class="cls-4" cx="579.66" cy="158.15" r="8.17"/><circle class="cls-4" cx="598.53" cy="134.42" r="8.17"/><circle class="cls-4" cx="614.88" cy="109.11" r="8.17"/><circle class="cls-4" cx="623.06" cy="79.62" r="8.17"/><polygon class="cls-5" points="585.09 84.88 574.24 84.88 568.81 94.28 574.24 103.68 585.09 103.68 590.51 94.28 585.09 84.88"/><polygon class="cls-5" points="610.58 160.95 614.3 168.49 622.63 169.7 616.6 175.57 618.02 183.86 610.58 179.95 603.14 183.86 604.56 175.57 598.53 169.7 606.86 168.49 610.58 160.95"/><line class="cls-3" x1="931.08" y1="712.42" x2="966.3" y2="727.25"/><polyline class="cls-3" points="916.49 803.81 931.08 776.29 949.95 752.56 966.3 727.25 974.04 697.76"/><circle class="cls-4" cx="931.08" cy="776.29" r="8.17"/><circle class="cls-4" cx="949.95" cy="752.56" r="8.17"/><circle class="cls-4" cx="966.3" cy="727.25" r="8.17"/><circle class="cls-4" cx="974.47" cy="697.76" r="8.17"/><polygon class="cls-5" points="936.5 703.02 925.65 703.02 920.23 712.42 925.65 721.82 936.5 721.82 941.93 712.42 936.5 703.02"/><line class="cls-3" x1="931.08" y1="403.35" x2="966.3" y2="418.18"/><line class="cls-3" x1="961.99" y1="481.48" x2="931.08" y2="467.22"/><polyline class="cls-3" points="916.49 494.75 931.08 467.22 949.95 443.49 966.3 418.18 974.04 388.69"/><circle class="cls-4" cx="916.49" cy="494.74" r="8.17"/><circle class="cls-4" cx="931.08" cy="467.22" r="8.17"/><circle class="cls-4" cx="949.95" cy="443.49" r="8.17"/><circle class="cls-4" cx="966.3" cy="418.18" r="8.17"/><circle class="cls-4" cx="974.47" cy="388.69" r="8.17"/><polygon class="cls-5" points="936.5 393.95 925.65 393.95 920.23 403.35 925.65 412.75 936.5 412.75 941.93 403.35 936.5 393.95"/><polygon class="cls-5" points="961.99 470.02 965.72 477.56 974.04 478.77 968.02 484.64 969.44 492.93 961.99 489.02 954.55 492.93 955.97 484.64 949.95 478.77 958.27 477.56 961.99 470.02"/><line class="cls-3" x1="931.08" y1="94.28" x2="966.3" y2="109.11"/><line class="cls-3" x1="961.99" y1="172.41" x2="931.08" y2="158.15"/><polyline class="cls-3" points="916.49 185.68 931.08 158.15 949.95 134.43 966.3 109.11 974.04 79.62"/><circle class="cls-4" cx="916.49" cy="185.68" r="8.17"/><circle class="cls-4" cx="931.08" cy="158.15" r="8.17"/><circle class="cls-4" cx="949.95" cy="134.42" r="8.17"/><circle class="cls-4" cx="966.3" cy="109.11" r="8.17"/><circle class="cls-4" cx="974.47" cy="79.62" r="8.17"/><polygon class="cls-5" points="936.5 84.88 925.65 84.88 920.23 94.28 925.65 103.68 936.5 103.68 941.93 94.28 936.5 84.88"/><polygon class="cls-5" points="961.99 160.95 965.72 168.49 974.04 169.7 968.02 175.57 969.44 183.86 961.99 179.95 954.55 183.86 955.97 175.57 949.95 169.7 958.27 168.49 961.99 160.95"/><line class="cls-3" x1="416.6" y1="573.92" x2="451.82" y2="588.75"/><line class="cls-3" x1="447.51" y1="652.05" x2="416.6" y2="637.79"/><polyline class="cls-3" points="402.01 665.32 416.6 637.79 435.47 614.06 451.82 588.75 459.56 559.26"/><circle class="cls-4" cx="402.01" cy="665.32" r="8.17"/><circle class="cls-4" cx="416.6" cy="637.79" r="8.17"/><circle class="cls-4" cx="435.47" cy="614.06" r="8.17"/><circle class="cls-4" cx="451.82" cy="588.75" r="8.17"/><circle class="cls-4" cx="459.99" cy="559.26" r="8.17"/><polygon class="cls-5" points="422.02 564.52 411.17 564.52 405.75 573.92 411.17 583.32 422.02 583.32 427.45 573.92 422.02 564.52"/><polygon class="cls-5" points="447.51 640.59 451.24 648.13 459.56 649.34 453.54 655.21 454.96 663.5 447.51 659.59 440.07 663.5 441.49 655.21 435.47 649.34 443.79 648.13 447.51 640.59"/><line class="cls-3" x1="416.6" y1="264.85" x2="451.82" y2="279.68"/><line class="cls-3" x1="447.51" y1="342.98" x2="416.6" y2="328.72"/><polyline class="cls-3" points="402.01 356.25 416.6 328.72 435.47 305 451.82 279.68 459.56 250.19"/><circle class="cls-4" cx="402.01" cy="356.25" r="8.17"/><circle class="cls-4" cx="416.6" cy="328.72" r="8.17"/><circle class="cls-4" cx="435.47" cy="305" r="8.17"/><circle class="cls-4" cx="451.82" cy="279.68" r="8.17"/><circle class="cls-4" cx="459.99" cy="250.19" r="8.17"/><polygon class="cls-5" points="422.02 255.45 411.17 255.45 405.75 264.85 411.17 274.25 422.02 274.25 427.45 264.85 422.02 255.45"/><polygon class="cls-5" points="447.51 331.52 451.24 339.06 459.56 340.27 453.54 346.14 454.96 354.43 447.51 350.52 440.07 354.43 441.49 346.14 435.47 340.27 443.79 339.06 447.51 331.52"/><line class="cls-3" x1="447.51" y1="33.91" x2="416.6" y2="19.65"/><polyline class="cls-3" points="402.01 47.18 416.6 19.65 435.47 -4.07 451.82 -29.39 459.56 -58.88"/><circle class="cls-4" cx="402.01" cy="47.18" r="8.17"/><circle class="cls-4" cx="416.6" cy="19.65" r="8.17"/><circle class="cls-4" cx="435.47" cy="-4.07" r="8.17"/><polygon class="cls-5" points="447.51 22.45 451.24 29.99 459.56 31.2 453.54 37.07 454.96 45.36 447.51 41.45 440.07 45.36 441.49 37.07 435.47 31.2 443.79 29.99 447.51 22.45"/><line class="cls-3" x1="768.01" y1="573.92" x2="803.23" y2="588.75"/><line class="cls-3" x1="798.93" y1="652.05" x2="768.01" y2="637.79"/><polyline class="cls-3" points="753.43 665.32 768.01 637.79 786.88 614.06 803.23 588.75 810.97 559.26"/><circle class="cls-4" cx="753.43" cy="665.32" r="8.17"/><circle class="cls-4" cx="768.01" cy="637.79" r="8.17"/><circle class="cls-4" cx="786.88" cy="614.06" r="8.17"/><circle class="cls-4" cx="803.23" cy="588.75" r="8.17"/><circle class="cls-4" cx="811.4" cy="559.26" r="8.17"/><polygon class="cls-5" points="773.43 564.52 762.58 564.52 757.16 573.92 762.58 583.32 773.43 583.32 778.86 573.92 773.43 564.52"/><polygon class="cls-5" points="798.93 640.59 802.65 648.13 810.97 649.34 804.95 655.21 806.37 663.5 798.93 659.59 791.48 663.5 792.9 655.21 786.88 649.34 795.2 648.13 798.93 640.59"/><line class="cls-3" x1="768.01" y1="264.85" x2="803.23" y2="279.68"/><line class="cls-3" x1="798.93" y1="342.98" x2="768.01" y2="328.72"/><polyline class="cls-3" points="753.43 356.25 768.01 328.72 786.88 305 803.23 279.68 810.97 250.19"/><circle class="cls-4" cx="753.43" cy="356.25" r="8.17"/><circle class="cls-4" cx="768.01" cy="328.72" r="8.17"/><circle class="cls-4" cx="786.88" cy="305" r="8.17"/><circle class="cls-4" cx="803.23" cy="279.68" r="8.17"/><circle class="cls-4" cx="811.4" cy="250.19" r="8.17"/><polygon class="cls-5" points="773.43 255.45 762.58 255.45 757.16 264.85 762.58 274.25 773.43 274.25 778.86 264.85 773.43 255.45"/><polygon class="cls-5" points="798.93 331.52 802.65 339.06 810.97 340.27 804.95 346.14 806.37 354.43 798.93 350.52 791.48 354.43 792.9 346.14 786.88 340.27 795.2 339.06 798.93 331.52"/><line class="cls-3" x1="798.93" y1="33.91" x2="768.01" y2="19.65"/><polyline class="cls-3" points="753.43 47.18 768.01 19.65 786.88 -4.07 803.23 -29.39 810.97 -58.88"/><circle class="cls-4" cx="753.43" cy="47.18" r="8.17"/><circle class="cls-4" cx="768.01" cy="19.65" r="8.17"/><circle class="cls-4" cx="786.88" cy="-4.07" r="8.17"/><polygon class="cls-5" points="798.93 22.45 802.65 29.99 810.97 31.2 804.95 37.07 806.37 45.36 798.93 41.45 791.48 45.36 792.9 37.07 786.88 31.2 795.2 29.99 798.93 22.45"/><line class="cls-3" x1="1282.04" y1="712.42" x2="1317.26" y2="727.25"/><polyline class="cls-3" points="1267.46 803.81 1282.04 776.29 1300.91 752.56 1317.26 727.25 1325.01 697.76"/><circle class="cls-4" cx="1282.04" cy="776.29" r="8.17"/><circle class="cls-4" cx="1300.92" cy="752.56" r="8.17"/><circle class="cls-4" cx="1317.26" cy="727.25" r="8.17"/><circle class="cls-4" cx="1325.44" cy="697.76" r="8.17"/><polygon class="cls-5" points="1287.47 703.02 1276.62 703.02 1271.19 712.42 1276.62 721.82 1287.47 721.82 1292.89 712.42 1287.47 703.02"/><line class="cls-3" x1="1282.04" y1="403.35" x2="1317.26" y2="418.18"/><line class="cls-3" x1="1312.96" y1="481.48" x2="1282.04" y2="467.22"/><polyline class="cls-3" points="1267.46 494.75 1282.04 467.22 1300.91 443.49 1317.26 418.18 1325.01 388.69"/><circle class="cls-4" cx="1267.46" cy="494.74" r="8.17"/><circle class="cls-4" cx="1282.04" cy="467.22" r="8.17"/><circle class="cls-4" cx="1300.92" cy="443.49" r="8.17"/><circle class="cls-4" cx="1317.26" cy="418.18" r="8.17"/><circle class="cls-4" cx="1325.44" cy="388.69" r="8.17"/><polygon class="cls-5" points="1287.47 393.95 1276.62 393.95 1271.19 403.35 1276.62 412.75 1287.47 412.75 1292.89 403.35 1287.47 393.95"/><polygon class="cls-5" points="1312.96 470.02 1316.68 477.56 1325.01 478.77 1318.98 484.64 1320.41 492.93 1312.96 489.02 1305.52 492.93 1306.94 484.64 1300.91 478.77 1309.24 477.56 1312.96 470.02"/><line class="cls-3" x1="1282.04" y1="94.28" x2="1317.26" y2="109.11"/><line class="cls-3" x1="1312.96" y1="172.41" x2="1282.04" y2="158.15"/><polyline class="cls-3" points="1267.46 185.68 1282.04 158.15 1300.91 134.43 1317.26 109.11 1325.01 79.62"/><circle class="cls-4" cx="1267.46" cy="185.68" r="8.17"/><circle class="cls-4" cx="1282.04" cy="158.15" r="8.17"/><circle class="cls-4" cx="1300.92" cy="134.42" r="8.17"/><circle class="cls-4" cx="1317.26" cy="109.11" r="8.17"/><circle class="cls-4" cx="1325.44" cy="79.62" r="8.17"/><polygon class="cls-5" points="1287.47 84.88 1276.62 84.88 1271.19 94.28 1276.62 103.68 1287.47 103.68 1292.89 94.28 1287.47 84.88"/><polygon class="cls-5" points="1312.96 160.95 1316.68 168.49 1325.01 169.7 1318.98 175.57 1320.41 183.86 1312.96 179.95 1305.52 183.86 1306.94 175.57 1300.91 169.7 1309.24 168.49 1312.96 160.95"/><line class="cls-3" x1="1118.98" y1="573.92" x2="1154.2" y2="588.75"/><line class="cls-3" x1="1149.89" y1="652.05" x2="1118.98" y2="637.79"/><polyline class="cls-3" points="1104.39 665.32 1118.98 637.79 1137.85 614.06 1154.2 588.75 1161.94 559.26"/><circle class="cls-4" cx="1104.39" cy="665.32" r="8.17"/><circle class="cls-4" cx="1118.98" cy="637.79" r="8.17"/><circle class="cls-4" cx="1137.85" cy="614.06" r="8.17"/><circle class="cls-4" cx="1154.2" cy="588.75" r="8.17"/><circle class="cls-4" cx="1162.37" cy="559.26" r="8.17"/><polygon class="cls-5" points="1124.4 564.52 1113.55 564.52 1108.13 573.92 1113.55 583.32 1124.4 583.32 1129.83 573.92 1124.4 564.52"/><polygon class="cls-5" points="1149.89 640.59 1153.62 648.13 1161.94 649.34 1155.92 655.21 1157.34 663.5 1149.89 659.59 1142.45 663.5 1143.87 655.21 1137.85 649.34 1146.17 648.13 1149.89 640.59"/><line class="cls-3" x1="1118.98" y1="264.85" x2="1154.2" y2="279.68"/><line class="cls-3" x1="1149.89" y1="342.98" x2="1118.98" y2="328.72"/><polyline class="cls-3" points="1104.39 356.25 1118.98 328.72 1137.85 305 1154.2 279.68 1161.94 250.19"/><circle class="cls-4" cx="1104.39" cy="356.25" r="8.17"/><circle class="cls-4" cx="1118.98" cy="328.72" r="8.17"/><circle class="cls-4" cx="1137.85" cy="305" r="8.17"/><circle class="cls-4" cx="1154.2" cy="279.68" r="8.17"/><circle class="cls-4" cx="1162.37" cy="250.19" r="8.17"/><polygon class="cls-5" points="1124.4 255.45 1113.55 255.45 1108.13 264.85 1113.55 274.25 1124.4 274.25 1129.83 264.85 1124.4 255.45"/><polygon class="cls-5" points="1149.89 331.52 1153.62 339.06 1161.94 340.27 1155.92 346.14 1157.34 354.43 1149.89 350.52 1142.45 354.43 1143.87 346.14 1137.85 340.27 1146.17 339.06 1149.89 331.52"/><line class="cls-3" x1="1149.89" y1="33.91" x2="1118.98" y2="19.65"/><polyline class="cls-3" points="1104.39 47.18 1118.98 19.65 1137.85 -4.07 1154.2 -29.39 1161.94 -58.88"/><circle class="cls-4" cx="1104.39" cy="47.18" r="8.17"/><circle class="cls-4" cx="1118.98" cy="19.65" r="8.17"/><circle class="cls-4" cx="1137.85" cy="-4.07" r="8.17"/><polygon class="cls-5" points="1149.89 22.45 1153.62 29.99 1161.94 31.2 1155.92 37.07 1157.34 45.36 1149.89 41.45 1142.45 45.36 1143.87 37.07 1137.85 31.2 1146.17 29.99 1149.89 22.45"/><line class="cls-3" x1="219.21" y1="712.42" x2="254.43" y2="727.25"/><polyline class="cls-3" points="204.63 803.81 219.21 776.29 238.08 752.56 254.43 727.25 262.17 697.76"/><circle class="cls-4" cx="219.21" cy="776.29" r="8.17"/><circle class="cls-4" cx="238.08" cy="752.56" r="8.17"/><circle class="cls-4" cx="254.43" cy="727.25" r="8.17"/><circle class="cls-4" cx="262.61" cy="697.76" r="8.17"/><polygon class="cls-5" points="224.64 703.02 213.78 703.02 208.36 712.42 213.78 721.82 224.64 721.82 230.06 712.42 224.64 703.02"/><line class="cls-3" x1="219.21" y1="403.35" x2="254.43" y2="418.18"/><line class="cls-3" x1="250.13" y1="481.48" x2="219.21" y2="467.22"/><polyline class="cls-3" points="204.63 494.75 219.21 467.22 238.08 443.49 254.43 418.18 262.17 388.69"/><circle class="cls-4" cx="204.63" cy="494.74" r="8.17"/><circle class="cls-4" cx="219.21" cy="467.22" r="8.17"/><circle class="cls-4" cx="238.08" cy="443.49" r="8.17"/><circle class="cls-4" cx="254.43" cy="418.18" r="8.17"/><circle class="cls-4" cx="262.61" cy="388.69" r="8.17"/><polygon class="cls-5" points="224.64 393.95 213.78 393.95 208.36 403.35 213.78 412.75 224.64 412.75 230.06 403.35 224.64 393.95"/><polygon class="cls-5" points="250.13 470.02 253.85 477.56 262.17 478.77 256.15 484.64 257.57 492.93 250.13 489.02 242.68 492.93 244.1 484.64 238.08 478.77 246.41 477.56 250.13 470.02"/><line class="cls-3" x1="219.21" y1="94.28" x2="254.43" y2="109.11"/><line class="cls-3" x1="250.13" y1="172.41" x2="219.21" y2="158.15"/><polyline class="cls-3" points="204.63 185.68 219.21 158.15 238.08 134.43 254.43 109.11 262.17 79.62"/><circle class="cls-4" cx="204.63" cy="185.68" r="8.17"/><circle class="cls-4" cx="219.21" cy="158.15" r="8.17"/><circle class="cls-4" cx="238.08" cy="134.42" r="8.17"/><circle class="cls-4" cx="254.43" cy="109.11" r="8.17"/><circle class="cls-4" cx="262.61" cy="79.62" r="8.17"/><polygon class="cls-5" points="224.64 84.88 213.78 84.88 208.36 94.28 213.78 103.68 224.64 103.68 230.06 94.28 224.64 84.88"/><polygon class="cls-5" points="250.13 160.95 253.85 168.49 262.17 169.7 256.15 175.57 257.57 183.86 250.13 179.95 242.68 183.86 244.1 175.57 238.08 169.7 246.41 168.49 250.13 160.95"/><line class="cls-3" x1="56.14" y1="573.92" x2="91.36" y2="588.75"/><line class="cls-3" x1="87.06" y1="652.05" x2="56.14" y2="637.79"/><polyline class="cls-3" points="41.56 665.32 56.14 637.79 75.02 614.06 91.36 588.75 99.11 559.26"/><circle class="cls-4" cx="41.56" cy="665.32" r="8.17"/><circle class="cls-4" cx="56.14" cy="637.79" r="8.17"/><circle class="cls-4" cx="75.02" cy="614.06" r="8.17"/><circle class="cls-4" cx="91.36" cy="588.75" r="8.17"/><circle class="cls-4" cx="99.54" cy="559.26" r="8.17"/><polygon class="cls-5" points="61.57 564.52 50.72 564.52 45.29 573.92 50.72 583.32 61.57 583.32 67 573.92 61.57 564.52"/><polygon class="cls-5" points="87.06 640.59 90.78 648.13 99.11 649.34 93.08 655.21 94.51 663.5 87.06 659.59 79.62 663.5 81.04 655.21 75.02 649.34 83.34 648.13 87.06 640.59"/><line class="cls-3" x1="56.14" y1="264.85" x2="91.36" y2="279.68"/><line class="cls-3" x1="87.06" y1="342.98" x2="56.14" y2="328.72"/><polyline class="cls-3" points="41.56 356.25 56.14 328.72 75.02 305 91.36 279.68 99.11 250.19"/><circle class="cls-4" cx="41.56" cy="356.25" r="8.17"/><circle class="cls-4" cx="56.14" cy="328.72" r="8.17"/><circle class="cls-4" cx="75.02" cy="305" r="8.17"/><circle class="cls-4" cx="91.36" cy="279.68" r="8.17"/><circle class="cls-4" cx="99.54" cy="250.19" r="8.17"/><polygon class="cls-5" points="61.57 255.45 50.72 255.45 45.29 264.85 50.72 274.25 61.57 274.25 67 264.85 61.57 255.45"/><polygon class="cls-5" points="87.06 331.52 90.78 339.06 99.11 340.27 93.08 346.14 94.51 354.43 87.06 350.52 79.62 354.43 81.04 346.14 75.02 340.27 83.34 339.06 87.06 331.52"/><line class="cls-3" x1="87.06" y1="33.91" x2="56.14" y2="19.65"/><polyline class="cls-3" points="41.56 47.18 56.14 19.65 75.02 -4.07 91.36 -29.39 99.11 -58.88"/><circle class="cls-4" cx="41.56" cy="47.18" r="8.17"/><circle class="cls-4" cx="56.14" cy="19.65" r="8.17"/><circle class="cls-4" cx="75.02" cy="-4.07" r="8.17"/><polygon class="cls-5" points="87.06 22.45 90.78 29.99 99.11 31.2 93.08 37.07 94.51 45.36 87.06 41.45 79.62 45.36 81.04 37.07 75.02 31.2 83.34 29.99 87.06 22.45"/></g></svg>