<svg id="Layer_1" data-name="Layer 1" xmlns="http://www.w3.org/2000/svg" viewBox="0 0 40.12 9.03"><defs><style>.cls-1{fill:#231f20;stroke:#808285;stroke-miterlimit:10;stroke-width:0.05px;}.cls-2{fill:none;}</style></defs><path class="cls-1" d="M14.72,1.6l-.29,1.58H14.2a2.73,2.73,0,0,0,0-.36,2,2,0,0,0-.08-.4A1,1,0,0,0,14,2.09a.35.35,0,0,0-.22-.16l-.25,0H13l-.87,4.72s0,0,0,.07v.07a.43.43,0,0,0,0,.17.29.29,0,0,0,.11.11l.24.08a1.19,1.19,0,0,0,.28,0l0,.27H10.51l.06-.27.28,0,.27-.06a.49.49,0,0,0,.2-.17.58.58,0,0,0,.09-.26l.88-4.75h-.42l-.3,0a.54.54,0,0,0-.26.16L11,2.44c-.09.13-.17.26-.25.39a3.62,3.62,0,0,0-.17.35h-.23l.29-1.58Z" transform="translate(0 -0.97)"/><path class="cls-1" d="M17.15,4.14a1.25,1.25,0,0,1-.22.75,1.48,1.48,0,0,1-.64.5,5.05,5.05,0,0,1-.61.23c-.21,0-.44.1-.69.14a2.06,2.06,0,0,0,.19,1,.61.61,0,0,0,.56.34.86.86,0,0,0,.58-.21,2.15,2.15,0,0,0,.5-.61l.18.17a2.3,2.3,0,0,1-.65.81,1.36,1.36,0,0,1-.82.3,1,1,0,0,1-.89-.41A1.93,1.93,0,0,1,14.33,6a4,4,0,0,1,.13-1,3.35,3.35,0,0,1,.38-.86,1.88,1.88,0,0,1,.6-.62,1.33,1.33,0,0,1,.78-.24.93.93,0,0,1,.7.24A.88.88,0,0,1,17.15,4.14ZM16.54,4a.81.81,0,0,0,0-.25.42.42,0,0,0-.09-.14.22.22,0,0,0-.13-.06l-.13,0c-.27,0-.51.18-.73.55A3.26,3.26,0,0,0,15,5.47l.52-.12a1.78,1.78,0,0,0,.48-.2,1.15,1.15,0,0,0,.4-.45A1.53,1.53,0,0,0,16.54,4Z" transform="translate(0 -0.97)"/><path class="cls-1" d="M19.56,6.9h0l-.17.19-.24.21a1.27,1.27,0,0,1-.27.18.73.73,0,0,1-.33.08.84.84,0,0,1-.75-.43A2.2,2.2,0,0,1,17.51,6a3.41,3.41,0,0,1,.15-1,3,3,0,0,1,.42-.86,2.1,2.1,0,0,1,.6-.59,1.24,1.24,0,0,1,1.16-.15,1,1,0,0,1,.33.18l.61-.2,0,.07-.5,2.66c0,.08,0,.18-.06.31a1.8,1.8,0,0,0,0,.27.46.46,0,0,0,.08.31.35.35,0,0,0,.27.09l.18,0a.58.58,0,0,0,.17,0l0,.26-.45.22a.88.88,0,0,1-.35.06.43.43,0,0,1-.37-.17A.71.71,0,0,1,19.56,6.9ZM20,4.29A2.11,2.11,0,0,0,20,4a.67.67,0,0,0-.1-.23.4.4,0,0,0-.18-.16.52.52,0,0,0-.29-.07.72.72,0,0,0-.47.2,1.89,1.89,0,0,0-.4.53,2.94,2.94,0,0,0-.28.76,3.49,3.49,0,0,0-.11.91,3,3,0,0,0,0,.44,1.36,1.36,0,0,0,.09.36.55.55,0,0,0,.18.24.49.49,0,0,0,.3.09A.75.75,0,0,0,19.16,7a2,2,0,0,0,.46-.46Z" transform="translate(0 -0.97)"/><path class="cls-1" d="M23.93,4.5c0,.41-.16.61-.47.61H22.21V7.44h-.77V1h2c.31,0,.47.19.47.59Zm-.78-.22V1.82h-.94V4.28Z" transform="translate(0 -0.97)"/><path class="cls-1" d="M26.53,5h-.75V4.07h-.59V7.44h-.75V3.28h.75v.15l.46-.1a2.31,2.31,0,0,1,.47-.06c.27,0,.41.16.41.5Z" transform="translate(0 -0.97)"/><path class="cls-1" d="M29.14,6.93q0,.51-.42.51H27.38c-.29,0-.43-.17-.43-.51V3.8c0-.35.14-.52.43-.52h1.34c.28,0,.42.17.42.52Zm-.74-.27V4.07h-.71V6.66Z" transform="translate(0 -0.97)"/><path class="cls-1" d="M31.12,7.44h-.84q-.42,0-.42-.51V4.08h-.35v-.8h.35V2.15h.75V3.28h.49v.8h-.49V6.64h.51Z" transform="translate(0 -0.97)"/><line class="cls-2" y1="9.03" x2="40.12" y2="9.03"/></svg>